<?xml version="1.0" encoding="utf-8"?>
<!-- Generator: Adobe Illustrator 27.9.4, SVG Export Plug-In . SVG Version: 9.03 Build 54784)  -->
<svg version="1.1" id="Capa_1" xmlns="http://www.w3.org/2000/svg" xmlns:xlink="http://www.w3.org/1999/xlink" x="0px" y="0px"
	 viewBox="0 0 81 80" style="enable-background:new 0 0 81 80;" xml:space="preserve">
<style type="text/css">
	.st0{clip-path:url(#SVGID_00000168080918277110125730000015643870960878163135_);}
	.st1{fill-rule:evenodd;clip-rule:evenodd;fill:none;stroke:#D9D9D9;stroke-width:2;stroke-miterlimit:10;}
</style>
<g>
	<defs>
		<rect id="SVGID_1_" y="0" width="81" height="80"/>
	</defs>
	<clipPath id="SVGID_00000107556681256396159390000000956605897596150694_">
		<use xlink:href="#SVGID_1_"  style="overflow:visible;"/>
	</clipPath>
	<g style="clip-path:url(#SVGID_00000107556681256396159390000000956605897596150694_);">
		<path class="st1" d="M37.5,10c-4,0-7.9,1.6-10.7,4.4S22.3,21,22.3,25s1.6,7.8,4.5,10.6c2.8,2.8,6.7,4.4,10.7,4.4
			c4,0,7.9-1.6,10.7-4.4c2.8-2.8,4.5-6.6,4.5-10.6s-1.6-7.8-4.5-10.6S41.5,10,37.5,10z M37.5,43c-7.3,0-13.9,2.1-18.8,5
			c-2.4,1.5-4.5,3.2-6,5.1c-1.5,1.8-2.6,4.1-2.6,6.4c0,2.5,1.2,4.5,3,6c1.7,1.3,3.9,2.2,6.3,2.9c4.8,1.3,11.2,1.7,18,1.7
			c0.7,0,1.4,0,2.1,0c0.5,0,1-0.1,1.5-0.4c0.4-0.2,0.8-0.6,1.1-1c0.3-0.4,0.4-0.9,0.5-1.4c0-0.5-0.1-1-0.3-1.5
			c-1.2-2.4-1.7-5-1.7-7.7c0-3.8,1.2-7.2,3.2-10.1c0.3-0.4,0.5-0.9,0.5-1.4c0-0.5-0.1-1-0.3-1.5c-0.2-0.5-0.6-0.9-1-1.2
			c-0.4-0.3-0.9-0.5-1.4-0.5C40.2,43.1,38.8,43,37.5,43z M70,52.2c0.6-0.6,0.9-1.3,0.9-2.1c0-0.8-0.3-1.5-0.9-2.1
			c-0.6-0.6-1.3-0.9-2.1-0.9c-0.8,0-1.6,0.3-2.1,0.8l-9.7,9.5l-4.3-4.2c-0.6-0.5-1.3-0.8-2.1-0.8c-0.8,0-1.6,0.3-2.1,0.9
			c-0.6,0.6-0.9,1.3-0.9,2.1c0,0.8,0.3,1.5,0.9,2.1l6.2,6.2c0.3,0.3,0.7,0.5,1.1,0.7c0.4,0.2,0.8,0.3,1.3,0.3c0.4,0,0.9-0.1,1.3-0.3
			c0.4-0.2,0.8-0.4,1.1-0.7L70,52.2z"/>
	</g>
</g>
</svg>
