<?xml version="1.0" encoding="utf-8"?>
<!-- Generator: Adobe Illustrator 27.9.4, SVG Export Plug-In . SVG Version: 9.03 Build 54784)  -->
<svg version="1.1" id="Capa_1" xmlns="http://www.w3.org/2000/svg" xmlns:xlink="http://www.w3.org/1999/xlink" x="0px" y="0px"
	 viewBox="0 0 24 24" style="enable-background:new 0 0 24 24;" xml:space="preserve">
<style type="text/css">
	.st0{fill:#D9D9D9;}
</style>
<path class="st0" d="M22.8,22c-1.9-2-3.8-4-5.7-5.9c-0.3-0.3-0.5-0.6-0.8-0.8c0,0,0,0-0.1-0.1c1.2-1.5,1.9-3.5,2-5.5c0,0,0,0,0-0.1
	v0c0,0,0-0.1,0-0.1c-0.1-3.8-2.5-7.2-6-8.5c-3.5-1.3-7.6-0.2-10,2.7c-2.4,3-2.8,7.2-0.8,10.6c2,3.3,5.8,4.9,9.6,4.2
	c1.6-0.3,3-1,4.1-2c0,0,0,0,0,0c1.9,2,3.8,4,5.7,5.9c0.3,0.3,0.5,0.6,0.8,0.8C22.3,24.1,23.6,22.9,22.8,22z M11.7,16.5
	c-3,1.1-6.3,0.2-8.3-2.2c-2-2.3-2.2-5.8-0.6-8.4c1.6-2.6,4.7-4,7.7-3.4c3.4,0.7,5.9,3.7,5.9,7.2C16.4,12.6,14.6,15.5,11.7,16.5z"/>
</svg>
