<?xml version="1.0" encoding="utf-8"?>
<!-- Generator: Adobe Illustrator 27.9.4, SVG Export Plug-In . SVG Version: 9.03 Build 54784)  -->
<svg version="1.1" id="Capa_1" xmlns="http://www.w3.org/2000/svg" xmlns:xlink="http://www.w3.org/1999/xlink" x="0px" y="0px"
	 viewBox="0 0 142 252" style="enable-background:new 0 0 142 252;" xml:space="preserve">
<style type="text/css">
	.st0{fill:none;stroke:#D9D9D9;stroke-miterlimit:10;}
</style>
<path class="st0" d="M103.2,114.9L50,99.3c-6.2-1.8-10.4-7.5-10.4-13.9c0-8,6.5-14.5,14.5-14.5c0,0,19-2.9,32.6,0
	c13.7,2.9,11.9,1.8,16.8,5.2c3,2,7,1.5,9.6-1l17.1-16.7c3.5-3.4,3-9.1-0.9-12.1c-12.1-9.4-27.1-14.7-42.6-14.8V7.9
	C86.9,3.5,83.3,0,79,0H63.2c-4.3,0-7.9,3.5-7.9,7.9v23.6h-1.2c-31.4,0-56.6,26.9-53.7,58.9c2.1,22.7,19.4,41.1,41.3,47.5l50.5,14.8
	c6.2,1.8,10.4,7.5,10.4,13.9c0,8-3.9,10.3-14.5,14.5H55.4c-6,0-11.9-1.8-16.8-5.2c-3-2-7-1.5-9.6,1l-17.1,16.7
	c-3.5,3.4-3,9.1,0.9,12.1c12.1,9.5,27.1,14.7,42.6,14.8v23.6c0,4.3,3.5,7.9,7.9,7.9H79c4.3,0,7.9-3.5,7.9-7.9v-23.7
	c22.9-0.4,44.5-14.1,52-35.8C149.5,154.3,131.7,123.2,103.2,114.9z"/>
</svg>
