<?xml version="1.0" encoding="utf-8"?>
<!-- Generator: Adobe Illustrator 27.9.4, SVG Export Plug-In . SVG Version: 9.03 Build 54784)  -->
<svg version="1.1" id="Capa_1" xmlns="http://www.w3.org/2000/svg" xmlns:xlink="http://www.w3.org/1999/xlink" x="0px" y="0px"
	 viewBox="0 0 17 26" style="enable-background:new 0 0 17 26;" xml:space="preserve">
<style type="text/css">
	.st0{fill:#D9D9D9;}
</style>
<path class="st0" d="M16.3,11.8c-1.7-0.5-3.3-0.9-4.9-1.4c0.7-2.4,1.4-4.8,2-7.3c0.1-0.4,0.2-0.8,0.3-1.2c0.2-0.9-0.8-1.5-1.5-0.9
	c-1.3,1.3-2.7,2.6-4,3.9c-2.1,2.1-4.3,4.2-6.4,6.3c-0.5,0.5-1,1-1.5,1.4C0,13,0,13.4,0.1,13.6c0.1,0.3,0.3,0.5,0.6,0.6
	c1.6,0.5,3.3,0.9,4.9,1.4c-0.7,2.4-1.3,4.8-2,7.3c-0.1,0.4-0.2,0.8-0.3,1.2c-0.2,0.9,0.8,1.5,1.5,0.9c1.3-1.3,2.7-2.6,4-3.9
	c2.2-2.1,4.3-4.2,6.5-6.3c0.5-0.5,1-1,1.5-1.4C17.2,12.8,17,12,16.3,11.8z M11.4,15.9c-1.9,1.8-3.7,3.6-5.6,5.4
	c0.5-1.7,0.9-3.3,1.4-5c0.1-0.4,0.2-0.8,0.3-1.2c0.1-0.5-0.2-1-0.6-1.1c-1.4-0.4-2.9-0.8-4.3-1.2c1-1,2-1.9,3-2.9
	c1.9-1.8,3.7-3.6,5.6-5.4c-0.5,1.7-0.9,3.3-1.4,5c-0.1,0.4-0.2,0.8-0.3,1.2c-0.1,0.5,0.2,1,0.6,1.1c1.4,0.4,2.9,0.8,4.3,1.2
	C13.4,14,12.4,15,11.4,15.9z"/>
</svg>
